# xmcd
#
# Track frame offsets:
#	150
#	46281
#	93132
#	116715
#	139725
#	155229
#	179217
#	216528
#	271254
#	294933
#	316530
#
# Disc length: 4666 seconds
#
# Revision: 0
# Processed by: cddbd v1.5PL3 Copyright (c) Steve Scherf et al.
# Submitted via: dBpowerAMP V4.0
#
DISCID=a412380b
DTITLE=¸t¸g-ÂÂ¬ù - Disc 24
DYEAR=1900
DGENRE=
TTITLE0=24-01-¦C¤ý¬ö¤W²Ä1³¹
TTITLE1=24-02-¦C¤ý¬ö¤W²Ä2³¹
TTITLE2=24-03-¦C¤ý¬ö¤W²Ä3³¹
TTITLE3=24-04-¦C¤ý¬ö¤W²Ä4³¹
TTITLE4=24-05-¦C¤ý¬ö¤W²Ä5³¹
TTITLE5=24-06-¦C¤ý¬ö¤W²Ä6³¹
TTITLE6=24-07-¦C¤ý¬ö¤W²Ä7³¹
TTITLE7=24-08-¦C¤ý¬ö¤W²Ä8³¹
TTITLE8=24-09-¦C¤ý¬ö¤W²Ä9³¹
TTITLE9=24-10-¦C¤ý¬ö¤W²Ä10³¹
TTITLE10=24-11-¦C¤ý¬ö¤W²Ä11³¹
EXTD=
EXTT0=
EXTT1=
EXTT2=
EXTT3=
EXTT4=
EXTT5=
EXTT6=
EXTT7=
EXTT8=
EXTT9=
EXTT10=
PLAYORDER=
